<svg width="25" height="25" viewBox="0 0 25 25" fill="none" xmlns="http://www.w3.org/2000/svg">
<g clip-path="url(#clip0_1_4)">
<path d="M18.2169 10.5563C18.2169 8.82786 17.5303 7.17025 16.3082 5.94809C15.086 4.72592 13.4284 4.03932 11.7 4.03932C9.97157 4.03932 8.31396 4.72592 7.0918 5.94809C5.86963 7.17025 5.18303 8.82786 5.18303 10.5563C5.18303 13.2297 7.32204 16.7141 11.7 20.8878C16.0779 16.7141 18.2169 13.2297 18.2169 10.5563ZM11.7 22.8661C6.38939 18.0392 3.73482 13.9349 3.73482 10.5563C3.73482 8.44377 4.574 6.4178 6.06776 4.92405C7.56152 3.43029 9.58748 2.5911 11.7 2.5911C13.8125 2.5911 15.8384 3.43029 17.3322 4.92405C18.826 6.4178 19.6651 8.44377 19.6651 10.5563C19.6651 13.9349 17.0106 18.0392 11.7 22.8661Z" fill="#10404F"/>
<path d="M11.7 12.7286C12.0841 12.7286 12.4524 12.576 12.724 12.3044C12.9956 12.0328 13.1482 11.6645 13.1482 11.2804C13.1482 10.8963 12.9956 10.5279 12.724 10.2563C12.4524 9.98474 12.0841 9.83216 11.7 9.83216C11.3159 9.83216 10.9475 9.98474 10.6759 10.2563C10.4043 10.5279 10.2518 10.8963 10.2518 11.2804C10.2518 11.6645 10.4043 12.0328 10.6759 12.3044C10.9475 12.576 11.3159 12.7286 11.7 12.7286ZM11.7 14.1768C10.9318 14.1768 10.1951 13.8716 9.65189 13.3284C9.10871 12.7853 8.80355 12.0485 8.80355 11.2804C8.80355 10.5122 9.10871 9.77547 9.65189 9.23229C10.1951 8.68911 10.9318 8.38395 11.7 8.38395C12.4682 8.38395 13.2049 8.68911 13.7481 9.23229C14.2912 9.77547 14.5964 10.5122 14.5964 11.2804C14.5964 12.0485 14.2912 12.7853 13.7481 13.3284C13.2049 13.8716 12.4682 14.1768 11.7 14.1768ZM20.9685 22.8661L21.8374 24.3143H15.3205H8.07945H1.5625L2.43143 22.8661H20.9685Z" fill="#10404F"/>
<path d="M46.8625 17.0732C47.2466 17.0732 47.615 16.9206 47.8866 16.649C48.1582 16.3774 48.3107 16.0091 48.3107 15.625C48.3107 15.2409 48.1582 14.8726 47.8866 14.601C47.615 14.3294 47.2466 14.1768 46.8625 14.1768C46.4784 14.1768 46.1101 14.3294 45.8385 14.601C45.5669 14.8726 45.4143 15.2409 45.4143 15.625C45.4143 16.0091 45.5669 16.3774 45.8385 16.649C46.1101 16.9206 46.4784 17.0732 46.8625 17.0732ZM46.8625 18.5214C46.0943 18.5214 45.3576 18.2163 44.8144 17.6731C44.2713 17.1299 43.9661 16.3932 43.9661 15.625C43.9661 14.8568 44.2713 14.1201 44.8144 13.5769C45.3576 13.0337 46.0943 12.7286 46.8625 12.7286C47.6307 12.7286 48.3674 13.0337 48.9106 13.5769C49.4538 14.1201 49.7589 14.8568 49.7589 15.625C49.7589 16.3932 49.4538 17.1299 48.9106 17.6731C48.3674 18.2163 47.6307 18.5214 46.8625 18.5214ZM54.6829 22.8661L57 28.6589H50.4831V27.2107H43.242V28.6589H36.7251L39.0422 22.8661H54.6829ZM53.1231 22.8661H40.6019L38.8641 27.2107H54.861L53.1231 22.8661Z" fill="#10404F"/>
</g>
<defs>
<clipPath id="clip0_1_4">
<rect width="25" height="25" fill="white"/>
</clipPath>
</defs>
</svg>
