<?xml version="1.0" standalone="no"?>
<!DOCTYPE svg PUBLIC "-//W3C//DTD SVG 20010904//EN"
 "http://www.w3.org/TR/2001/REC-SVG-20010904/DTD/svg10.dtd">
<svg version="1.0" xmlns="http://www.w3.org/2000/svg"
 width="260.000000pt" height="260.000000pt" viewBox="0 0 260.000000 260.000000"
 preserveAspectRatio="xMidYMid meet">
<metadata>
Created by potrace 1.14, written by Peter Selinger 2001-2017
</metadata>
<g transform="translate(0.000000,260.000000) scale(0.100000,-0.100000)"
fill="#000000" stroke="none">
<path d="M0 1300 l0 -1300 1300 0 1300 0 0 1300 0 1300 -1300 0 -1300 0 0
-1300z m1403 763 c57 -87 121 -189 142 -228 22 -38 48 -83 58 -100 53 -88 234
-469 282 -595 112 -291 212 -628 195 -659 -17 -32 -58 -59 -117 -76 -80 -23
-94 -17 -143 67 -91 153 -105 176 -174 281 -55 83 -76 107 -93 107 -48 0 -521
-100 -568 -120 -46 -20 -56 -31 -120 -131 -165 -257 -141 -229 -191 -229 -73
0 -174 61 -174 104 0 47 99 384 224 766 l133 404 -48 44 c-27 24 -49 51 -49
59 0 49 467 462 523 463 11 0 51 -52 120 -157z"/>
<path d="M1266 1177 c-15 -19 -26 -39 -26 -45 0 -9 117 -23 129 -15 5 3 -62
92 -71 93 -4 0 -18 -15 -32 -33z"/>
</g>
</svg>
