
<svg width="27" height="36" viewBox="0 0 31 31"  xmlns="http://www.w3.org/2000/svg">
<path fill-rule="evenodd" clip-rule="evenodd" d="M6.86258 2.91316C9.35166 1.25001 12.278 0.362305 15.2716 0.362305C19.2844 0.367111 23.1315 1.96332 25.969 4.80081C28.8065 7.63829 30.4027 11.4854 30.4075 15.4982C30.4075 18.4918 29.5198 21.4181 27.8566 23.9072C26.1935 26.3963 23.8296 28.3363 21.0639 29.4819C18.2981 30.6275 15.2548 30.9272 12.3188 30.3432C9.38268 29.7592 6.68573 28.3176 4.56894 26.2008C2.45215 24.0841 1.0106 21.3871 0.42658 18.451C-0.15744 15.515 0.1423 12.4716 1.2879 9.70593C2.4335 6.94021 4.3735 4.57631 6.86258 2.91316ZM21.7281 21.1979C21.9552 20.9708 22.0828 20.6628 22.0828 20.3417L22.0767 13.4427C22.0767 13.1216 21.9491 12.8136 21.722 12.5865C21.495 12.3594 21.187 12.2319 20.8658 12.2319H18.3624L18.1868 11.0846C18.0748 10.3732 17.3694 10.0341 16.7852 10.0341H13.7732C13.195 10.0341 12.4866 10.3701 12.3716 11.0846L12.19 12.2319H9.68648C9.36534 12.2319 9.05735 12.3594 8.83027 12.5865C8.60319 12.8136 8.47561 13.1216 8.47561 13.4427V20.3417C8.47561 20.6628 8.60319 20.9708 8.83027 21.1979C9.05735 21.4249 9.36534 21.5525 9.68648 21.5525H20.8719C21.193 21.5525 21.501 21.4249 21.7281 21.1979ZM13.3291 13.5173C13.904 13.1332 14.58 12.9281 15.2716 12.9281C16.1989 12.9281 17.0882 13.2965 17.7439 13.9522C18.3996 14.6079 18.7679 15.4972 18.7679 16.4245C18.7679 17.116 18.5629 17.792 18.1787 18.367C17.7945 18.942 17.2484 19.3901 16.6096 19.6547C15.9707 19.9194 15.2677 19.9886 14.5894 19.8537C13.9112 19.7188 13.2882 19.3858 12.7992 18.8968C12.3103 18.4078 11.9773 17.7848 11.8424 17.1066C11.7074 16.4284 11.7767 15.7254 12.0413 15.0865C12.306 14.4476 12.7541 13.9015 13.3291 13.5173ZM14.0674 18.2267C14.4238 18.4648 14.8429 18.5919 15.2716 18.5919C15.8464 18.5919 16.3977 18.3636 16.8042 17.9571C17.2107 17.5506 17.439 16.9993 17.439 16.4245C17.439 15.9958 17.3119 15.5767 17.0737 15.2203C16.8356 14.8639 16.4971 14.5861 16.101 14.422C15.705 14.258 15.2692 14.215 14.8487 14.2987C14.4283 14.3823 14.0421 14.5887 13.7389 14.8919C13.4358 15.195 13.2294 15.5812 13.1458 16.0016C13.0621 16.4221 13.105 16.8579 13.2691 17.2539C13.4331 17.65 13.7109 17.9885 14.0674 18.2267Z" fill="#354052"/> 
</svg>

 
  