<svg width="132" height="111" viewBox="0 0 132 111" fill="none" xmlns="http://www.w3.org/2000/svg">
<rect x="1" y="1" width="130" height="57.6699" stroke="#FF5722" stroke-width="2"/>
<rect x="5.60178" y="7.40777" width="111.593" height="6.40777" fill="black"/>
<rect x="7.60178" y="21.1553" width="29.3628" height="29.1068" stroke="black" stroke-width="4"/>
<rect x="42.4159" y="19.1553" width="74.7788" height="4.27184" fill="black"/>
<rect x="42.4159" y="28.767" width="74.7788" height="4.27184" fill="black"/>
<rect x="42.4159" y="38.3786" width="74.7788" height="4.27184" fill="black"/>
<rect x="42.4159" y="47.9903" width="74.7788" height="4.27184" fill="black"/>
<path d="M116.044 1H131V15.9515L116.044 1Z" fill="#FF5722"/>
<rect x="5.60178" y="66.1456" width="111.593" height="6.40777" fill="black"/>
<rect x="7.60178" y="79.8932" width="29.3628" height="29.1068" stroke="black" stroke-width="4"/>
<rect x="42.4159" y="77.8932" width="74.7788" height="4.27184" fill="black"/>
<rect x="42.4159" y="87.5049" width="74.7788" height="4.27184" fill="black"/>
<rect x="42.4159" y="97.1165" width="74.7788" height="4.27184" fill="black"/>
<rect x="42.4159" y="106.728" width="74.7788" height="4.27184" fill="black"/>
</svg>
