<svg width="102" height="101" viewBox="0 0 102 101" fill="none" xmlns="http://www.w3.org/2000/svg">
<rect x="1" y="1" width="100" height="52.4272" stroke="#FF5722" stroke-width="2"/>
<rect x="4.53983" y="6.82524" width="85.8407" height="5.82524" fill="black"/>
<rect x="6.53983" y="19.5049" width="21.6637" height="26.0971" stroke="black" stroke-width="4"/>
<rect x="32.8584" y="17.5049" width="57.5221" height="3.8835" fill="black"/>
<rect x="32.8584" y="26.2427" width="57.5221" height="3.8835" fill="black"/>
<rect x="32.8584" y="34.9806" width="57.5221" height="3.8835" fill="black"/>
<rect x="32.8584" y="43.7184" width="57.5221" height="3.8835" fill="black"/>
<path d="M89.4956 1H101V14.5922L89.4956 1Z" fill="#FF5722"/>
<rect x="4.53983" y="60.2233" width="85.8407" height="5.82524" fill="black"/>
<rect x="6.53983" y="72.9029" width="21.6637" height="26.0971" stroke="black" stroke-width="4"/>
<rect x="32.8584" y="70.9029" width="57.5221" height="3.8835" fill="black"/>
<rect x="32.8584" y="79.6408" width="57.5221" height="3.8835" fill="black"/>
<rect x="32.8584" y="88.3786" width="57.5221" height="3.8835" fill="black"/>
<rect x="32.8584" y="97.1165" width="57.5221" height="3.8835" fill="black"/>
</svg>
