<svg width="102" height="81" viewBox="0 0 102 81" fill="none" xmlns="http://www.w3.org/2000/svg">
<rect x="1" y="1" width="100" height="41.9417" stroke="#FF5722" stroke-width="2"/>
<rect x="4.53984" y="5.66019" width="85.8407" height="4.66019" fill="black"/>
<rect x="6.53984" y="16.2039" width="21.6637" height="20.0777" stroke="black" stroke-width="4"/>
<rect x="32.8584" y="14.2039" width="57.5221" height="3.1068" fill="black"/>
<rect x="32.8584" y="21.1942" width="57.5221" height="3.1068" fill="black"/>
<rect x="32.8584" y="28.1845" width="57.5221" height="3.1068" fill="black"/>
<rect x="32.8584" y="35.1748" width="57.5221" height="3.1068" fill="black"/>
<path d="M89.4956 1H101V11.8738L89.4956 1Z" fill="#FF5722"/>
<rect x="4.53984" y="48.3786" width="85.8407" height="4.66019" fill="black"/>
<rect x="6.53984" y="58.9223" width="21.6637" height="20.0777" stroke="black" stroke-width="4"/>
<rect x="32.8584" y="56.9223" width="57.5221" height="3.1068" fill="black"/>
<rect x="32.8584" y="63.9126" width="57.5221" height="3.1068" fill="black"/>
<rect x="32.8584" y="70.9029" width="57.5221" height="3.1068" fill="black"/>
<rect x="32.8584" y="77.8932" width="57.5221" height="3.1068" fill="black"/>
</svg>
