<svg width="122" height="101" viewBox="0 0 122 101" fill="none" xmlns="http://www.w3.org/2000/svg">
<rect x="1" y="1" width="120" height="52.4272" stroke="#FF5722" stroke-width="2"/>
<rect x="5.2478" y="6.82524" width="103.009" height="5.82524" fill="black"/>
<rect x="7.2478" y="19.5049" width="26.7965" height="26.0971" stroke="black" stroke-width="4"/>
<rect x="39.2301" y="17.5049" width="69.0266" height="3.8835" fill="black"/>
<rect x="39.2301" y="26.2427" width="69.0266" height="3.8835" fill="black"/>
<rect x="39.2301" y="34.9806" width="69.0266" height="3.8835" fill="black"/>
<rect x="39.2301" y="43.7184" width="69.0266" height="3.8835" fill="black"/>
<path d="M107.195 1H121V14.5922L107.195 1Z" fill="#FF5722"/>
<rect x="5.2478" y="60.2233" width="103.009" height="5.82524" fill="black"/>
<rect x="7.2478" y="72.9029" width="26.7965" height="26.0971" stroke="black" stroke-width="4"/>
<rect x="39.2301" y="70.9029" width="69.0266" height="3.8835" fill="black"/>
<rect x="39.2301" y="79.6408" width="69.0266" height="3.8835" fill="black"/>
<rect x="39.2301" y="88.3786" width="69.0266" height="3.8835" fill="black"/>
<rect x="39.2301" y="97.1165" width="69.0266" height="3.8835" fill="black"/>
</svg>
